<svg width="860" height="682" viewBox="0 0 860 682" fill="none" xmlns="http://www.w3.org/2000/svg">
<g opacity="0.75" filter="url(#filter0_f_44_142)">
<path fill-rule="evenodd" clip-rule="evenodd" d="M235.047 411.654C235.714 368.826 302.293 366.884 338.594 344.15C361.581 329.755 379.077 306.873 406.098 304.533C435.326 302.002 462.247 314.699 486.402 331.35C517.768 352.973 563.372 373.603 561.491 411.654C559.608 449.76 507.018 458.673 478.839 484.395C453.161 507.834 440.857 554.257 406.098 553.5C371.344 552.743 363.217 503.483 336.459 481.293C303.644 454.082 234.383 454.278 235.047 411.654Z" fill="#83DFFF"/>
<path fill-rule="evenodd" clip-rule="evenodd" d="M429.452 157.072C462.847 159.859 498.05 145.377 525.909 164.001C558.363 185.696 583.347 221.428 584.108 260.458C584.88 299.981 563.396 340.004 529.749 360.754C500.131 379.019 464.14 358.589 429.452 355.832C399.714 353.468 367.766 363.918 343.928 345.982C317.637 326.201 307.345 293.028 302.693 260.458C297.072 221.099 284.618 171.561 315.428 146.433C346.18 121.351 389.906 153.771 429.452 157.072Z" fill="#34B0E6"/>
<g filter="url(#filter1_f_44_142)">
<path fill-rule="evenodd" clip-rule="evenodd" d="M609.104 128.764C649.471 135.191 664.26 183.697 685.581 218.57C700.135 242.375 705.292 267.689 710.77 295.047C718.627 334.295 745.235 375.965 723.87 409.813C700.98 446.076 651.879 459.157 609.104 456.109C568.662 453.228 538.993 422.479 509.606 394.546C479.058 365.51 440.88 337.175 439.658 295.047C438.419 252.322 473.154 219.542 503.661 189.604C533.77 160.057 567.445 122.131 609.104 128.764Z" fill="#2D91C9"/>
</g>
<path fill-rule="evenodd" clip-rule="evenodd" d="M269.58 191.471C309.478 184.337 357.961 184.289 384.098 215.266C409.693 245.601 395.632 291.211 386.283 329.784C379.418 358.108 361.651 380.779 339.416 399.62C319.42 416.565 295.778 429.494 269.58 428.675C244.101 427.879 224.865 410 203.976 395.388C175.516 375.481 131.572 364.351 128.202 329.784C124.813 295.022 164.836 274.431 189.803 250.006C214.312 226.028 235.828 197.506 269.58 191.471Z" fill="#37BEF3"/>
</g>
<defs>
<filter id="filter0_f_44_142" x="0" y="0" width="860" height="681.509" filterUnits="userSpaceOnUse" color-interpolation-filters="sRGB">
<feFlood flood-opacity="0" result="BackgroundImageFix"/>
<feBlend mode="normal" in="SourceGraphic" in2="BackgroundImageFix" result="shape"/>
<feGaussianBlur stdDeviation="64" result="effect1_foregroundBlur_44_142"/>
</filter>
<filter id="filter1_f_44_142" x="311.626" y="0" width="548.374" height="584.536" filterUnits="userSpaceOnUse" color-interpolation-filters="sRGB">
<feFlood flood-opacity="0" result="BackgroundImageFix"/>
<feBlend mode="normal" in="SourceGraphic" in2="BackgroundImageFix" result="shape"/>
<feGaussianBlur stdDeviation="64" result="effect1_foregroundBlur_44_142"/>
</filter>
</defs>
</svg>
