<?xml version="1.0" encoding="utf-8"?>
<svg viewBox="0 0 500 500" xmlns="http://www.w3.org/2000/svg">
  <defs>
    <linearGradient gradientUnits="userSpaceOnUse" x1="550" y1="395.356" x2="550" y2="701.578" id="gradient-0" spreadMethod="pad" gradientTransform="matrix(0.475267, 0, 0, 0.487316, -13.947706, 138.814116)">
      <stop offset="0" style="stop-color: rgba(201, 168, 255, 1)"/>
      <stop offset="1" style="stop-color: rgba(138, 66, 255, 1)"/>
    </linearGradient>
  </defs>
  <path d="M 262.267 17.738 C 261.499 19.889 255.258 21.376 247.488 21.376 C 239.465 21.376 233.081 18.996 232.652 17.077 L 196.26 121.649 L 196.251 121.649 C 196.269 129.933 219.204 136.525 247.359 136.525 C 275.512 136.525 298.467 130.149 298.467 122.042 L 298.467 122.039 L 262.267 17.738 Z" style="fill: rgb(202, 168, 255);"/>
  <path d="M 441.404 353.645 L 371.03 331.477 L 387.324 378.465 L 387.322 378.465 C 387.275 400.881 324.594 418.77 247.28 418.77 C 169.964 418.77 107.284 400.881 107.236 378.465 L 107.262 378.465 L 123.553 331.485 L 53.322 353.653 C 11.874 366.735 1.897 389.404 34.477 404.376 L 168.736 466.079 C 211.121 485.558 283.748 485.584 326.107 466.126 L 460.427 404.429 C 493.052 389.443 482.987 366.743 441.404 353.645 Z" style="fill: url(#gradient-0);"/>
  <g transform="matrix(0.475267, 0, 0, 0.487316, 14.990317, 16.779345)" style="">
    <path d="M655.997,381.461c-4.879,11.841-21.986,22.058-50.218,29.847c-31.25,8.622-72.838,13.37-117.103,13.37 c-44.28,0-85.87-4.857-117.109-13.678c-27.324-7.715-44.232-17.743-49.711-29.335l-69.411,194.533h-0.043 c0.08,35,106.409,66.121,236.528,66.121c130.117,0,236.528-29.668,236.528-66.207v-0.012L655.997,381.461z" style="fill: rgb(202, 168, 255);"/>
  </g>
</svg>