<svg width="24" height="24" viewBox="0 0 24 24" fill="none" xmlns="http://www.w3.org/2000/svg">
<path id="Vector" d="M24 17.8609L23.9792 1.79228C23.9792 1.27038 23.8144 0.844622 23.485 0.515024C23.1692 0.171685 22.7364 0 22.187 0H6.11842C5.59655 0 5.17766 0.171685 4.86178 0.515024C4.54589 0.844622 4.38795 1.23606 4.38795 1.68927C4.38795 2.12875 4.55276 2.51328 4.88239 2.84291C5.22573 3.17251 5.61714 3.33732 6.05664 3.33732H10.8154L18.9733 3.04892L15.8626 5.7064L0.515024 21.0952C0.171685 21.4249 0 21.8094 0 22.2488C0 22.702 0.171685 23.1071 0.515024 23.4642C0.872106 23.8213 1.27725 24 1.73047 24C2.18368 24 2.57509 23.8352 2.90472 23.5055L18.2729 8.11671L20.9716 5.00598L20.6214 13.1021V17.9433C20.6214 18.3828 20.7862 18.7742 21.1157 19.1175C21.4592 19.4609 21.8573 19.6325 22.3106 19.6325C22.7503 19.6325 23.1414 19.4677 23.485 19.1381C23.8282 18.7948 24 18.369 24 17.8609Z" fill="white"/>
</svg>
